<?xml version="1.0" standalone="no"?>
<!DOCTYPE svg PUBLIC "-//W3C//DTD SVG 20010904//EN"
 "http://www.w3.org/TR/2001/REC-SVG-20010904/DTD/svg10.dtd">
<svg version="1.0" xmlns="http://www.w3.org/2000/svg"
 width="512.000000pt" height="512.000000pt" viewBox="0 0 512.000000 512.000000"
 preserveAspectRatio="xMidYMid meet">

<g transform="translate(0.000000,512.000000) scale(0.100000,-0.100000)"
fill="#000000" stroke="none">
<path d="M1 4248 c1 -515 5 -847 10 -809 29 223 122 457 256 642 83 116 242
266 369 349 345 224 768 283 1174 163 116 -34 287 -118 393 -193 96 -69 275
-248 322 -322 17 -27 32 -48 35 -48 3 0 18 21 34 48 43 68 248 269 336 328
164 111 327 180 520 221 146 30 355 33 505 8 404 -68 768 -321 977 -679 84
-144 156 -355 177 -521 5 -44 9 254 10 808 l1 877 -2560 0 -2560 0 1 -872z"/>
<path d="M1 1583 l-1 -1583 2560 0 2560 0 -1 1583 c-1 1380 -3 1571 -15 1494
-101 -650 -733 -1401 -1814 -2154 -255 -177 -700 -453 -731 -453 -44 0 -675
413 -974 637 -941 707 -1476 1378 -1570 1973 -11 73 -13 -135 -14 -1497z"/>
</g>
</svg>
